<?xml version="1.0" encoding="iso-8859-1"?>
<!-- Generator: Adobe Illustrator 19.0.0, SVG Export Plug-In . SVG Version: 6.00 Build 0)  -->
<svg version="1.1" id="Layer_1" xmlns="http://www.w3.org/2000/svg" xmlns:xlink="http://www.w3.org/1999/xlink" x="0px" y="0px"
	 viewBox="0 0 511.783 511.783" style="enable-background:new 0 0 511.783 511.783;" xml:space="preserve">
<g transform="translate(1 1)">
	<g>
		<path style="fill:#63D3FD;" d="M266.281,460.451L266.281,460.451c-55.539,55.539-144.054,55.539-199.593,0l0,0
			c-55.539-55.539-55.539-144.054,0-199.593l97.193-114.549l102.4,114.549C326.159,316.397,327.895,405.78,266.281,460.451"/>
		<path style="fill:#63D3FD;" d="M248.925,460.451L248.925,460.451c-55.539,55.539-144.054,55.539-199.593,0l0,0
			c-55.539-55.539-55.539-144.054,0-199.593l97.193-114.549l102.4,114.549C308.803,316.397,310.539,405.78,248.925,460.451"/>
	</g>
	<path style="fill:#3DB9F9;" d="M248.925,460.451L248.925,460.451c-55.539,55.539-144.054,55.539-199.593,0l0,0
		c-55.539-55.539-55.539-144.054,0-199.593l97.193-114.549l102.4,114.549C308.803,316.397,310.539,405.78,248.925,460.451"/>
	<path style="fill:#63D3FD;" d="M222.892,460.451L222.892,460.451c-55.539,55.539-118.02,55.539-173.559,0l0,0
		c-55.539-55.539-55.539-144.054,0-199.593l97.193-114.549l76.366,114.549C282.77,316.397,284.505,405.78,222.892,460.451"/>
	<path style="fill:#3DB9F9;" d="M464.139,254.783L464.139,254.783c-40.786,40.786-107.607,40.786-148.393,0l0,0
		c-39.919-41.654-39.919-110.21,0-152.732l73.763-94.59l74.63,93.722C503.19,141.102,503.19,209.658,464.139,254.783"/>
	<g>
		<path style="fill:#63D3FD;" d="M481.495,254.783L481.495,254.783c-40.786,40.786-107.607,40.786-148.393,0l0,0
			c-39.919-41.654-39.919-110.21,0-152.732l73.763-94.59l74.63,93.722C520.546,141.102,520.546,209.658,481.495,254.783"/>
		<path style="fill:#63D3FD;" d="M438.105,254.783L438.105,254.783c-40.786,40.786-81.573,40.786-122.359,0l0,0
			c-39.919-41.654-39.919-110.21,0-152.732l73.763-94.59L418.146,63c9.546,19.092,20.827,36.447,32.976,54.671
			C477.156,157.59,472.817,214.864,438.105,254.783"/>
	</g>
	<path d="M389.508,293.834c-29.505,0-58.142-11.281-80.705-32.976c-42.522-45.125-42.522-118.888,0-164.881l73.763-93.722
		c3.471-4.339,10.414-4.339,13.885,0l73.763,93.722c42.522,42.522,42.522,116.285,0,164.881l0,0
		C447.651,282.553,419.014,293.834,389.508,293.834z M389.508,21.346L321.82,106.39c-36.447,39.919-37.315,103.268,0,142.319
		c37.315,37.315,98.061,37.315,136.244,0c36.447-41.654,36.447-105.003,0-141.451l-0.868-0.868L389.508,21.346z M464.139,254.783
		L464.139,254.783L464.139,254.783z"/>
	<path d="M389.508,259.122c-20.827,0-40.786-7.81-55.539-22.563c-30.373-32.108-29.505-85.044,0-117.153l0.868-0.868
		c3.471-3.471,8.678-3.471,12.149,0c3.471,3.471,3.471,8.678,0,12.149l-0.868,0.868c-24.298,26.034-24.298,67.688-0.868,93.722
		c11.281,11.281,26.902,17.356,43.39,17.356c5.207,0,8.678,3.471,8.678,8.678C397.319,256.519,394.715,259.122,389.508,259.122z"/>
	<path d="M149.129,510.783c-39.919,0-77.234-15.62-105.871-44.258C14.62,438.756-1,400.573-1,360.654s15.62-77.234,44.258-105.871
		l97.193-114.549c1.736-1.736,4.339-2.603,6.942-3.471c2.603,0,5.207,0.868,6.942,2.603l101.532,114.549
		c31.241,28.637,48.597,66.82,48.597,106.739s-17.356,77.234-48.597,105.003C226.363,495.163,189.047,510.783,149.129,510.783z
		 M146.525,159.325L55.407,266.932c-25.166,25.166-39.051,59.01-39.051,93.722s13.885,68.556,39.051,93.722
		c25.166,25.166,58.142,39.051,93.722,39.051s68.556-13.885,93.722-39.051l0,0c27.769-24.298,42.522-57.275,43.39-91.986
		c0-35.58-14.753-69.424-43.39-94.59c0,0-0.868,0-0.868-0.868L146.525,159.325z"/>
	<path d="M149.129,476.071c-30.373,0-59.878-12.149-81.573-33.844s-33.844-50.332-33.844-81.573
		c0-30.373,12.149-59.878,33.844-81.573l0.868-0.868c3.471-3.471,8.678-3.471,12.149,0s3.471,8.678,0,12.149l-0.868,0.868
		c-18.224,18.224-28.637,43.39-28.637,69.424s10.414,50.332,28.637,69.424c18.224,18.224,43.39,28.637,69.424,28.637
		c5.207,0,8.678,3.471,8.678,8.678S153.468,476.071,149.129,476.071z"/>
</g>
<g>
</g>
<g>
</g>
<g>
</g>
<g>
</g>
<g>
</g>
<g>
</g>
<g>
</g>
<g>
</g>
<g>
</g>
<g>
</g>
<g>
</g>
<g>
</g>
<g>
</g>
<g>
</g>
<g>
</g>
</svg>
