<?xml version="1.0" encoding="UTF-8" standalone="no"?> <!-- Created with Vectornator for iOS (http://vectornator.io/) --><!DOCTYPE svg PUBLIC "-//W3C//DTD SVG 1.1//EN" "http://www.w3.org/Graphics/SVG/1.1/DTD/svg11.dtd">
<svg style="fill-rule:evenodd;clip-rule:evenodd;stroke-linecap:round;stroke-linejoin:round;" xmlns:vectornator="http://vectornator.io" xmlns:xlink="http://www.w3.org/1999/xlink" xmlns="http://www.w3.org/2000/svg" xml:space="preserve" version="1.1" viewBox="0 0 841.89 595.28">
<metadata>
<vectornator:setting key="DynamicGuides" value="1"/>
<vectornator:setting key="Units" value="Points"/>
<vectornator:setting key="RulersVisible" value="1"/>
<vectornator:setting key="SnapToGuides" value="1"/>
<vectornator:setting key="GridSpacing" value="36"/>
</metadata>
<defs>
<linearGradient y1="4921.65" id="LinearGradient" x1="4714.06" y2="4797.3" x2="4833.22" gradientUnits="userSpaceOnUse" gradientTransform="matrix(0 -1 -1 0 5030.1 5054.5)">
<stop stop-color="#fccb91" offset="0"/>
<stop stop-color="#f0857d" offset="1"/>
</linearGradient>
<linearGradient y1="134.277" id="LinearGradient_2" x1="264.754" y2="392.931" x2="54.147" gradientUnits="userSpaceOnUse" gradientTransform="matrix(1 0 0 1 0 0)">
<stop stop-color="#00a9da" offset="0"/>
<stop stop-color="#009cd1" offset="0.1362"/>
<stop stop-color="#0085c1" offset="0.3528"/>
<stop stop-color="#3c70b2" offset="0.5549"/>
<stop stop-color="#4e5fa5" offset="0.7364"/>
<stop stop-color="#56549e" offset="0.8909"/>
<stop stop-color="#58509b" offset="1"/>
</linearGradient>
<linearGradient y1="4842.64" id="LinearGradient_3" x1="4642.17" y2="4842.64" x2="4770.9" gradientUnits="userSpaceOnUse" gradientTransform="matrix(0 -1 -1 0 5030.1 5054.5)">
<stop stop-color="#ffffff" offset="0.4935"/>
<stop stop-color="#f3f3f3" offset="0.5384"/>
<stop stop-color="#d1d1d1" offset="0.6207"/>
<stop stop-color="#9c9c9c" offset="0.731"/>
<stop stop-color="#515151" offset="0.8655"/>
<stop stop-color="#000000" offset="1"/>
</linearGradient>
<linearGradient y1="4905.85" id="LinearGradient_4" x1="4667.9" y2="4859.41" x2="4743.57" gradientUnits="userSpaceOnUse" gradientTransform="matrix(0 -1 -1 0 5030.1 5054.5)">
<stop stop-color="#ffffff" offset="0.4935"/>
<stop stop-color="#f3f3f3" offset="0.5384"/>
<stop stop-color="#d1d1d1" offset="0.6207"/>
<stop stop-color="#9c9c9c" offset="0.731"/>
<stop stop-color="#515151" offset="0.8655"/>
<stop stop-color="#000000" offset="1"/>
</linearGradient>
</defs>
<g id="Untitled" vectornator:layerName="Untitled">
<path d="M226.69+203C212.4+203+199+206.83+187.45+213.5C210.9+227.06+226.69+252.43+226.69+281.48L148.22+281.48C148.22+310.52+164.01+335.88+187.46+349.45C199.01+356.13+212.41+359.95+226.7+359.95C270.05+359.95+305.18+324.82+305.18+281.48C305.17+238.13+270.04+203+226.69+203Z" opacity="1" fill="#4abbc1"/>
<path d="M187.45+213.5C164+227.06+148.21+252.43+148.21+281.48L226.68+281.48C226.69+252.43+210.9+227.06+187.45+213.5Z" opacity="1" fill="url(#LinearGradient)"/>
<path d="M187.45+213.5C210.9+227.06+226.69+252.43+226.69+281.48L148.22+281.48C148.22+310.52+164.01+335.88+187.46+349.45C175.91+356.13+162.51+359.95+148.22+359.95C104.87+359.95+69.74+324.82+69.74+281.48C69.74+238.13+104.87+203+148.22+203C162.5+203+175.9+206.82+187.45+213.5Z" opacity="1" fill="url(#LinearGradient_2)"/>
<path d="M148.22+281.48L226.69+281.48L187.51+349.48C187.49+349.47+187.47+349.46+187.46+349.45C164+335.88+148.22+310.52+148.22+281.48Z" opacity="0.1" fill="url(#LinearGradient_3)"/>
<path d="M148.22+281.6C148.22+310.64+164.01+336+187.46+349.57C175.91+356.25+162.51+360.08+148.22+360.08C133.94+360.08+120.57+356.25+109.04+349.59L148.22+281.6L148.22+281.6Z" opacity="0.1" fill="url(#LinearGradient_4)"/>
<path d="M370.26+254.93C368.17+252.12+365.59+250.01+362.52+248.61C359.45+247.21+356.25+246.5+352.91+246.5C349.05+246.5+345.51+247.28+342.28+248.85C339.05+250.42+336.25+252.53+333.9+255.17C331.55+257.82+329.72+260.89+328.41+264.38C327.1+267.88+326.45+271.52+326.45+275.31C326.45+279.36+327.1+283.14+328.41+286.63C329.72+290.13+331.53+293.16+333.85+295.74C336.17+298.32+338.95+300.36+342.18+301.87C345.41+303.37+348.99+304.12+352.91+304.12C357.16+304.12+360.95+303.29+364.28+301.62C367.61+299.95+370.52+297.55+373+294.42L379.17+299.61C376.03+303.79+372.26+306.86+367.85+308.82C363.44+310.78+358.46+311.76+352.9+311.76C347.93+311.76+343.3+310.84+338.98+309.02C334.67+307.19+330.93+304.66+327.76+301.43C324.59+298.2+322.11+294.36+320.31+289.91C318.51+285.47+317.61+280.6+317.61+275.31C317.61+270.21+318.48+265.44+320.21+261C321.94+256.56+324.38+252.7+327.51+249.43C330.65+246.16+334.37+243.58+338.68+241.69C342.99+239.8+347.73+238.85+352.89+238.85C357.59+238.85+362.12+239.7+366.46+241.4C370.8+243.1+374.45+245.88+377.39+249.73L370.26+254.93Z" opacity="1" fill="#1d71b8"/>
<path d="M429.26+299.13C429.26+301.22+429.32+303.18+429.46+305.01C429.59+306.84+429.66+308.51+429.66+310.01L422.41+310.01C422.41+308.77+422.38+307.53+422.31+306.29C422.24+305.05+422.21+303.78+422.21+302.47L422.01+302.47C421.49+303.58+420.75+304.66+419.81+305.7C418.86+306.75+417.73+307.68+416.43+308.49C415.12+309.31+413.65+309.96+412.02+310.45C410.39+310.94+408.62+311.19+406.73+311.19C403.72+311.19+401.13+310.73+398.94+309.82C396.75+308.91+394.94+307.63+393.5+306C392.06+304.37+391+302.39+390.31+300.07C389.62+297.75+389.28+295.22+389.28+292.47L389.28+264.15L396.93+264.15L396.93+291.69C396.93+295.55+397.78+298.58+399.48+300.81C401.18+303.03+403.82+304.14+407.42+304.14C409.9+304.14+412.04+303.72+413.84+302.87C415.64+302.02+417.11+300.81+418.25+299.24C419.39+297.67+420.24+295.81+420.8+293.65C421.35+291.49+421.63+289.11+421.63+286.5L421.63+264.15L429.28+264.15L429.28+299.13L429.26+299.13Z" opacity="1" fill="#1d71b8"/>
<path d="M444.75+297.95C446.25+299.85+447.9+301.35+449.7+302.46C451.5+303.57+453.77+304.13+456.51+304.13C457.69+304.13+458.88+304+460.09+303.74C461.3+303.48+462.39+303.05+463.37+302.47C464.35+301.88+465.13+301.15+465.72+300.26C466.31+299.38+466.6+298.32+466.6+297.07C466.6+295.83+466.32+294.82+465.77+294.03C465.21+293.25+464.48+292.58+463.56+292.02C462.64+291.47+461.6+291.02+460.42+290.7C459.24+290.37+458.03+290.08+456.79+289.82C454.63+289.36+452.58+288.84+450.62+288.25C448.66+287.66+446.95+286.9+445.47+285.95C444+285+442.82+283.78+441.94+282.27C441.06+280.77+440.62+278.84+440.62+276.49C440.62+274.27+441.11+272.31+442.09+270.61C443.07+268.91+444.38+267.51+446.01+266.4C447.64+265.29+449.47+264.44+451.5+263.85C453.52+263.26+455.62+262.97+457.77+262.97C461.04+262.97+464.06+263.62+466.84+264.93C469.62+266.24+471.79+268.36+473.36+271.3L466.99+275.51C466.01+273.88+464.72+272.55+463.12+271.54C461.52+270.53+459.58+270.02+457.29+270.02C456.24+270.02+455.18+270.15+454.1+270.41C453.02+270.67+452.06+271.06+451.21+271.59C450.36+272.11+449.66+272.78+449.1+273.6C448.54+274.42+448.27+275.35+448.27+276.39C448.27+277.37+448.58+278.2+449.2+278.89C449.82+279.58+450.67+280.18+451.75+280.7C452.83+281.22+454.07+281.68+455.48+282.07C456.88+282.46+458.34+282.79+459.84+283.05C461.86+283.44+463.79+283.95+465.62+284.57C467.45+285.19+469.05+286.03+470.42+287.07C471.79+288.12+472.87+289.42+473.65+290.99C474.43+292.56+474.83+294.49+474.83+296.77C474.83+299.38+474.31+301.61+473.26+303.43C472.21+305.26+470.83+306.75+469.09+307.89C467.36+309.03+465.4+309.87+463.21+310.39C461.02+310.91+458.78+311.17+456.5+311.17C452.58+311.17+449.2+310.56+446.36+309.36C443.52+308.15+440.95+305.91+438.67+302.65L444.75+297.95Z" opacity="1" fill="#1d71b8"/>
<path d="M510.61+270.61L497.08+270.61L497.08+293.54C497.08+295.04+497.11+296.43+497.18+297.71C497.24+298.98+497.51+300.1+497.96+301.04C498.42+301.99+499.1+302.74+500.02+303.29C500.93+303.85+502.24+304.12+503.94+304.12C505.05+304.12+506.19+303.99+507.37+303.73C508.55+303.47+509.66+303.08+510.7+302.55L510.99+309.51C509.68+310.1+508.23+310.52+506.63+310.78C505.03+311.04+503.51+311.17+502.07+311.17C499.33+311.17+497.14+310.81+495.5+310.09C493.87+309.37+492.59+308.36+491.68+307.05C490.76+305.74+490.16+304.13+489.87+302.2C489.58+300.27+489.43+298.13+489.43+295.78L489.43+270.59L479.43+270.59L479.43+264.12L489.43+264.12L489.43+251.08L497.07+251.08L497.07+264.12L510.6+264.12L510.6+270.61L510.61+270.61Z" opacity="1" fill="#1d71b8"/>
<path d="M554.32+252.87C552.95+250.65+551.12+249.03+548.83+248.02C546.54+247.01+544.16+246.5+541.68+246.5C539.85+246.5+538.05+246.73+536.29+247.19C534.53+247.65+532.94+248.33+531.54+249.25C530.13+250.17+529.01+251.37+528.16+252.88C527.31+254.38+526.89+256.15+526.89+258.17C526.89+259.74+527.14+261.13+527.63+262.34C528.12+263.55+528.92+264.64+530.03+265.62C531.14+266.6+532.64+267.52+534.54+268.36C536.43+269.21+538.75+270.06+541.5+270.91C544.18+271.76+546.78+272.67+549.29+273.65C551.8+274.63+554.03+275.87+555.95+277.37C557.88+278.87+559.41+280.75+560.56+283.01C561.7+285.26+562.28+288.09+562.28+291.49C562.28+294.95+561.59+297.96+560.22+300.51C558.85+303.06+557.03+305.17+554.78+306.83C552.53+308.5+549.93+309.74+546.99+310.55C544.05+311.37+541.01+311.77+537.88+311.77C535.85+311.77+533.83+311.59+531.8+311.23C529.77+310.87+527.83+310.31+525.97+309.56C524.11+308.81+522.36+307.83+520.73+306.62C519.1+305.41+517.69+303.92+516.52+302.16L523.58+296.38C525.08+298.93+527.17+300.86+529.85+302.16C532.53+303.47+535.37+304.12+538.38+304.12C540.14+304.12+541.92+303.86+543.72+303.34C545.52+302.82+547.13+302.05+548.57+301.04C550.01+300.03+551.18+298.77+552.1+297.27C553.01+295.77+553.47+294.03+553.47+292.07C553.47+289.91+553.11+288.17+552.39+286.83C551.67+285.49+550.56+284.33+549.06+283.35C547.56+282.37+545.66+281.49+543.38+280.7C541.09+279.92+538.41+279+535.34+277.96C532.86+277.18+530.57+276.28+528.48+275.26C526.39+274.25+524.58+273.01+523.04+271.54C521.5+270.07+520.3+268.31+519.41+266.25C518.53+264.19+518.09+261.73+518.09+258.85C518.09+255.52+518.74+252.61+520.05+250.13C521.36+247.65+523.12+245.57+525.34+243.91C527.56+242.24+530.08+240.99+532.89+240.14C535.7+239.29+538.64+238.87+541.71+238.87C545.63+238.87+549.21+239.48+552.44+240.68C555.67+241.89+558.57+244+561.11+247L554.32+252.87Z" opacity="1" fill="#4abbc1"/>
<path d="M607.15+275.61C605.52+273.65+603.75+272.23+601.86+271.35C599.96+270.47+597.87+270.03+595.59+270.03C593.04+270.03+590.79+270.47+588.83+271.35C586.87+272.23+585.25+273.46+583.98+275.03C582.71+276.6+581.74+278.41+581.09+280.47C580.44+282.53+580.11+284.73+580.11+287.09C580.11+289.44+580.49+291.65+581.24+293.71C581.99+295.77+583.04+297.58+584.38+299.15C585.72+300.72+587.34+301.94+589.23+302.82C591.12+303.7+593.25+304.14+595.6+304.14C600.63+304.14+604.52+302.24+607.26+298.45L612.95+303.84C610.73+306.39+608.11+308.25+605.11+309.43C602.1+310.61+598.94+311.19+595.6+311.19C592.07+311.19+588.84+310.6+585.9+309.43C582.96+308.25+580.46+306.59+578.4+304.43C576.34+302.27+574.74+299.73+573.6+296.78C572.46+293.84+571.89+290.61+571.89+287.08C571.89+283.62+572.46+280.42+573.6+277.48C574.74+274.54+576.36+271.99+578.45+269.84C580.54+267.68+583.04+266+585.95+264.79C588.86+263.58+592.08+262.98+595.6+262.98C599+262.98+602.22+263.57+605.25+264.74C608.29+265.92+610.95+267.75+613.24+270.23L607.15+275.61Z" opacity="1" fill="#4abbc1"/>
<path d="M619.11+287.07C619.11+283.48+619.73+280.21+620.97+277.27C622.21+274.33+623.91+271.8+626.07+269.67C628.23+267.55+630.81+265.9+633.81+264.72C636.81+263.54+640.08+262.96+643.61+262.96C647.14+262.96+650.4+263.55+653.41+264.72C656.41+265.9+659+267.55+661.15+269.67C663.31+271.79+665+274.33+666.25+277.27C667.49+280.21+668.11+283.48+668.11+287.07C668.11+290.66+667.49+293.93+666.25+296.87C665.01+299.81+663.31+302.34+661.15+304.47C658.99+306.59+656.41+308.24+653.41+309.42C650.4+310.6+647.14+311.18+643.61+311.18C640.08+311.18+636.81+310.59+633.81+309.42C630.8+308.24+628.22+306.59+626.07+304.47C623.91+302.35+622.21+299.81+620.97+296.87C619.73+293.94+619.11+290.67+619.11+287.07ZM627.34+287.07C627.34+289.49+627.72+291.73+628.47+293.78C629.22+295.84+630.31+297.64+631.75+299.17C633.19+300.71+634.9+301.91+636.9+302.8C638.89+303.68+641.13+304.12+643.61+304.12C646.09+304.12+648.33+303.68+650.32+302.8C652.31+301.92+654.03+300.71+655.47+299.17C656.91+297.64+658+295.84+658.75+293.78C659.5+291.72+659.88+289.48+659.88+287.07C659.88+284.65+659.5+282.41+658.75+280.36C658+278.3+656.9+276.51+655.47+274.97C654.03+273.44+652.32+272.23+650.32+271.34C648.33+270.46+646.09+270.02+643.61+270.02C641.13+270.02+638.89+270.46+636.9+271.34C634.91+272.22+633.19+273.43+631.75+274.97C630.31+276.51+629.22+278.3+628.47+280.36C627.71+282.42+627.34+284.66+627.34+287.07Z" opacity="1" fill="#4abbc1"/>
<path d="M679.58+264.14L687.22+264.14L687.22+270.8L687.42+270.8C689.51+268.32+691.94+266.39+694.72+265.02C697.5+263.65+700.55+262.96+703.88+262.96C707.47+262.96+710.76+263.57+713.73+264.77C716.7+265.98+719.23+267.66+721.33+269.82C723.42+271.98+725.05+274.52+726.23+277.46C727.41+280.4+727.99+283.6+727.99+287.06C727.99+290.52+727.4+293.72+726.23+296.66C725.06+299.6+723.44+302.15+721.38+304.31C719.32+306.47+716.89+308.15+714.08+309.36C711.27+310.57+708.26+311.17+705.06+311.17C700.94+311.17+697.33+310.27+694.23+308.47C691.13+306.67+688.86+304.47+687.42+301.85L687.22+301.85L687.22+332.33L679.58+332.33L679.58+264.14ZM687.22+287.07C687.22+289.49+687.6+291.73+688.35+293.78C689.1+295.84+690.19+297.64+691.63+299.17C693.07+300.71+694.78+301.91+696.78+302.8C698.77+303.68+701.01+304.12+703.49+304.12C705.97+304.12+708.21+303.68+710.2+302.8C712.19+301.92+713.91+300.71+715.35+299.17C716.79+297.64+717.88+295.84+718.63+293.78C719.38+291.72+719.76+289.48+719.76+287.07C719.76+284.65+719.38+282.41+718.63+280.36C717.88+278.3+716.78+276.51+715.35+274.97C713.91+273.44+712.2+272.23+710.2+271.34C708.21+270.46+705.97+270.02+703.49+270.02C701.01+270.02+698.77+270.46+696.78+271.34C694.79+272.22+693.07+273.43+691.63+274.97C690.19+276.51+689.1+278.3+688.35+280.36C687.6+282.42+687.22+284.66+687.22+287.07Z" opacity="1" fill="#4abbc1"/>
<path d="M780.82+301.68C778.08+305.21+775.07+307.68+771.8+309.08C768.53+310.48+764.74+311.19+760.43+311.19C756.84+311.19+753.6+310.55+750.73+309.28C747.85+308.01+745.42+306.29+743.43+304.13C741.44+301.97+739.9+299.43+738.82+296.48C737.74+293.54+737.2+290.4+737.2+287.07C737.2+283.54+737.79+280.29+738.96+277.32C740.14+274.35+741.77+271.8+743.86+269.68C745.95+267.56+748.43+265.91+751.31+264.73C754.18+263.55+757.32+262.97+760.72+262.97C763.92+262.97+766.86+263.51+769.54+264.59C772.22+265.67+774.52+267.24+776.45+269.29C778.38+271.35+779.86+273.86+780.91+276.84C781.95+279.81+782.48+283.2+782.48+286.98L782.48+289.43L745.43+289.43C745.56+291.39+746.03+293.27+746.85+295.07C747.67+296.87+748.73+298.44+750.03+299.77C751.34+301.11+752.87+302.17+754.64+302.95C756.4+303.73+758.33+304.13+760.42+304.13C763.75+304.13+766.56+303.54+768.85+302.37C771.14+301.19+773.19+299.46+775.02+297.18L780.82+301.68ZM774.25+282.96C774.12+279.04+772.84+275.9+770.43+273.55C768.01+271.2+764.68+270.02+760.43+270.02C756.18+270.02+752.75+271.2+750.14+273.55C747.53+275.9+745.96+279.04+745.44+282.96L774.25+282.96Z" opacity="1" fill="#4abbc1"/>
</g>
</svg>
