<?xml version="1.0" encoding="iso-8859-1"?>
<!-- Generator: Adobe Illustrator 19.0.0, SVG Export Plug-In . SVG Version: 6.00 Build 0)  -->
<svg version="1.1" id="Layer_1" xmlns="http://www.w3.org/2000/svg" xmlns:xlink="http://www.w3.org/1999/xlink" x="0px" y="0px"
	 viewBox="0 0 503.467 503.467" style="enable-background:new 0 0 503.467 503.467;" xml:space="preserve">
<g transform="translate(11 1)">
	<path style="fill:#FF7474;" d="M249.693,195.267V50.2L317.96,63v119.467L249.693,195.267z M181.427,37.4v170.667l-85.333-85.333
		L181.427,37.4z M454.493,156.867l-68.267,12.8V75.8l68.267,12.8V156.867z"/>
	<path style="fill:#ECF4F7;" d="M181.427,208.067l68.267-12.8V50.2l-68.267-12.8V208.067z M317.96,182.467V63l68.267,12.8v93.867
		L317.96,182.467z"/>
	<path style="fill:#AAB1BA;" d="M96.093,37.4c-9.387,0-17.067-7.68-17.067-17.067s7.68-17.067,17.067-17.067
		s17.067,7.68,17.067,17.067S105.48,37.4,96.093,37.4"/>
</g>
<path style="fill:#51565F;" d="M175.36,503.467H38.827c-2.56,0-4.267-1.707-4.267-4.267c0-2.56,1.707-4.267,4.267-4.267h64V41.813
	c-9.387-1.707-17.067-10.24-17.067-20.48C85.76,9.387,95.147,0,107.093,0s21.333,9.387,21.333,21.333
	c0,10.24-7.68,18.773-17.067,20.48v453.12h64c2.56,0,4.267,1.707,4.267,4.267C179.627,501.76,177.92,503.467,175.36,503.467z
	 M107.093,8.533c-6.827,0-12.8,5.973-12.8,12.8s5.973,12.8,12.8,12.8s12.8-5.973,12.8-12.8S113.92,8.533,107.093,8.533z
	 M192.427,213.333L192.427,213.333c-1.707,0-2.56-0.853-3.413-0.853l-51.2-51.2c-1.707-1.707-1.707-4.267,0-5.973
	s4.267-1.707,5.973,0l43.52,43.52V48.64l-43.52,43.52c-1.707,1.707-4.267,1.707-5.973,0c-1.707-1.707-1.707-4.267,0-5.973l51.2-51.2
	c0.853-0.853,1.707-0.853,2.56-0.853l0,0l0,0h0.853l273.067,51.2c1.707,0,3.413,2.56,3.413,4.267v68.267
	c0,1.707-1.707,3.413-3.413,4.267L192.427,213.333C193.28,213.333,192.427,213.333,192.427,213.333L192.427,213.333L192.427,213.333
	z M196.693,43.52v160.427l264.533-49.493v-61.44L196.693,43.52z M260.693,170.667c-2.56,0-4.267-1.707-4.267-4.267V81.067
	c0-2.56,1.707-4.267,4.267-4.267s4.267,1.707,4.267,4.267V166.4C264.96,168.96,263.253,170.667,260.693,170.667z M328.96,157.867
	c-2.56,0-4.267-1.707-4.267-4.267V93.867c0-2.56,1.707-4.267,4.267-4.267c2.56,0,4.267,1.707,4.267,4.267V153.6
	C333.227,156.16,331.52,157.867,328.96,157.867z M397.227,145.067c-2.56,0-4.267-1.707-4.267-4.267v-34.133
	c0-2.56,1.707-4.267,4.267-4.267s4.267,1.707,4.267,4.267V140.8C401.493,143.36,399.787,145.067,397.227,145.067z"/>
<g>
</g>
<g>
</g>
<g>
</g>
<g>
</g>
<g>
</g>
<g>
</g>
<g>
</g>
<g>
</g>
<g>
</g>
<g>
</g>
<g>
</g>
<g>
</g>
<g>
</g>
<g>
</g>
<g>
</g>
</svg>
